#N canvas 562 196 878 455 12;
#X declare -stdpath soundfiler;
#X obj 18 96 soundfiler;
#X obj 79 14 declare -stdpath soundfiler;
#X floatatom 18 126 8 0 0 0 - - -;
#X obj 18 10 bng 15 250 50 0 empty empty empty 17 7 0 10 -262144 -1
-1;
#N canvas 0 50 450 250 (subpatch) 0;
#X array sample 345168 float 2;
#X coords 0 1 345168 -1 200 140 1;
#X restore 308 139 graph;
#X msg 19 341 s $sample.length;
#X obj 84 295 dac~;
#X obj 563 180 phasor~;
#X obj 361 84 readsf~;
#X obj 78 168 line~;
#X msg 102 131 0 \, 345168 8000;
#X obj 55 196 tabread4~ sample;
#X obj 103 99 bng 15 250 50 0 empty empty empty 17 7 0 10 -262144 -1
-1;
#X msg 18 67 read -resize resources/amen_break.wav sample;
#X msg 112 229 soundfile_arrayname sample;
#X obj 33 32 t b b;
#X obj 161 267 pd_granular_synth~ sample;
#X connect 0 0 2 0;
#X connect 2 0 5 0;
#X connect 3 0 15 0;
#X connect 9 0 11 0;
#X connect 10 0 9 0;
#X connect 11 0 6 0;
#X connect 11 0 6 1;
#X connect 12 0 10 0;
#X connect 13 0 0 0;
#X connect 14 0 16 0;
#X connect 15 0 14 0;
#X connect 15 1 13 0;
